Coordinates
version=1
nRows=11
nColumns=40
inDegrees=yes

Units are S.I. units (second, meters, Newtons, ...)
Angles are in degrees.

endheader
time	pelvis_tilt	pelvis_list	pelvis_rotation	pelvis_tx	pelvis_ty	pelvis_tz	hip_flexion_r	hip_adduction_r	hip_rotation_r	knee_angle_r	knee_angle_r_beta	ankle_angle_r	subtalar_angle_r	mtp_angle_r	hip_flexion_l	hip_adduction_l	hip_rotation_l	knee_angle_l	knee_angle_l_beta	ankle_angle_l	subtalar_angle_l	mtp_angle_l	lumbar_extension	lumbar_bending	lumbar_rotation	arm_flex_r	arm_add_r	arm_rot_r	elbow_flex_r	pro_sup_r	wrist_flex_r	wrist_dev_r	arm_flex_l	arm_add_l	arm_rot_l	elbow_flex_l	pro_sup_l	wrist_flex_l	wrist_dev_l
      1.41000000	     -1.83835606	     -1.87654329	      5.75234606	     -0.34950427	      0.88935128	      1.46603472	     28.67094953	     -2.84563293	    -12.67974030	    -46.22496645	     -0.80677786	      5.55638490	    -16.53918333	     20.39074971	      7.26319465	      0.75670449	      9.79250760	    -26.87610699	     -0.46907656	     14.96950638	      8.85428597	     -4.73935864	     -5.11024860	      0.79869974	     -9.82409688	     -4.95962514	     -7.30861930	    -16.51975392	     23.82421907	     89.95437384	      0.00000000	      0.00000000	      6.62774362	     13.78065344	     12.97963562	     42.09458555	     89.95437384	      0.00000000	      0.00000000
      1.42000000	     -2.04823545	     -1.79684687	      5.99371570	     -0.34024793	      0.88854742	      1.46564444	     29.12102036	     -3.00918608	    -12.89208269	    -43.14612067	     -0.75304187	      5.60529054	    -15.93852452	     20.13284125	      6.66401743	      0.71979819	      9.78441002	    -26.57876958	     -0.46388704	     14.99575200	      8.20907029	     -4.78536828	     -4.90438616	      0.69928210	    -10.11404374	     -5.22108484	     -7.18036069	    -16.67852621	     23.75649812	     89.95437384	      0.00000000	      0.00000000	      7.06451430	     13.95513077	     13.15976986	     42.79781412	     89.95437384	      0.00000000	      0.00000000
      1.43000000	     -2.00033456	     -1.87673456	      6.33817611	     -0.33068470	      0.88812022	      1.46529636	     29.12624368	     -3.06427340	    -13.42489475	    -39.91143696	     -0.69658598	      5.27378701	    -15.31431584	     19.93090404	      5.80267195	      0.97270437	      9.97400638	    -26.32624934	     -0.45947973	     15.15082220	      7.52590940	     -4.90614129	     -4.94550987	      0.80830240	    -10.47414929	     -5.44401891	     -7.05172982	    -16.88276017	     23.65655581	     89.95437384	      0.00000000	      0.00000000	      7.50172792	     14.11441549	     13.34591319	     43.46299847	     89.95437384	      0.00000000	      0.00000000
      1.44000000	     -2.58933705	     -1.35944163	      6.38176824	     -0.32162972	      0.88654449	      1.46488706	     29.99638324	     -3.82410832	    -13.85214275	    -37.03497349	     -0.64638223	      5.39184588	    -14.78951268	     19.70592585	      5.64853404	      0.44884366	     10.43860013	    -26.20171211	     -0.45730615	     15.24067107	      7.26560269	     -4.89718156	     -4.36722106	      0.19461160	    -10.51346358	     -5.87792647	     -6.93861714	    -16.87216311	     23.80869052	     89.95437384	      0.00000000	      0.00000000	      7.89548095	     14.26076714	     13.38696236	     44.12218999	     89.95437384	      0.00000000	      0.00000000
      1.45000000	     -2.18279893	     -1.71111111	      6.74084503	     -0.31150540	      0.88673476	      1.46514469	     29.29762641	     -3.42345781	    -14.34919444	    -33.44637287	     -0.58374933	      5.21073402	    -13.79924917	     18.93735873	      4.36937591	      1.26442528	     11.05821806	    -25.89934922	     -0.45202892	     14.97261479	      5.23033646	     -5.49877884	     -4.75946456	      0.60413375	    -10.91434622	     -5.99616601	     -6.76602259	    -17.15193903	     23.70129527	     89.95437384	      0.00000000	      0.00000000	      8.22130780	     14.42829957	     13.59284231	     44.80681221	     89.95437384	      0.00000000	      0.00000000
      1.46000000	     -2.67311968	     -1.37057165	      7.01649884	     -0.30267125	      0.88538959	      1.46457617	     29.81904062	     -4.04801561	    -15.02522181	    -30.45096714	     -0.53146964	      5.31803551	    -12.90861954	     18.39960420	      4.22026876	      0.89489371	     11.05479464	    -25.87543149	     -0.45161147	     14.98790151	      5.13617338	     -5.59907138	     -4.31139309	      0.22137555	    -11.23700083	     -6.17242209	     -6.62891316	    -17.32081661	     23.62288990	     89.95437384	      0.00000000	      0.00000000	      8.58420355	     14.55098044	     13.73115747	     45.39499674	     89.95437384	      0.00000000	      0.00000000
      1.47000000	     -3.11178917	     -1.05328294	      7.24167436	     -0.29344780	      0.88410970	      1.46440195	     30.32146573	     -4.55793510	    -15.50844327	    -27.76248215	     -0.48454672	      5.48588262	    -11.96700175	     18.10506372	      4.00905599	      0.61878687	     11.18044124	    -25.92311166	     -0.45244365	     14.93172941	      4.92534174	     -5.63532444	     -3.87486421	     -0.16748775	    -11.48731671	     -6.41277302	     -6.48356652	    -17.39775656	     23.59247550	     89.95437384	      0.00000000	      0.00000000	      8.86228340	     14.73199007	     13.72194571	     45.97792938	     89.95437384	      0.00000000	      0.00000000
      1.48000000	     -3.20233655	     -0.99468057	      7.57409904	     -0.28365644	      0.88330765	      1.46426578	     30.33480385	     -4.89507738	    -16.81151798	    -25.22198450	     -0.44020667	      5.80958189	    -10.33662934	     17.47910316	      3.44005794	      0.74189689	     11.36407614	    -25.96620784	     -0.45319582	     14.88823968	      4.52428538	     -5.83779955	     -3.74282434	     -0.21073475	    -11.85358023	     -6.48456503	     -6.35559993	    -17.64062893	     23.28527809	     89.95437384	      0.00000000	      0.00000000	      9.09821888	     14.82524538	     13.90748032	     46.52410408	     89.95437384	      0.00000000	      0.00000000
      1.49000000	     -3.29898749	     -1.01875759	      7.97772989	     -0.27395760	      0.88243722	      1.46433077	     30.51001755	     -5.19308072	    -18.18747284	    -23.28771207	     -0.40644725	      5.97089684	     -8.27052134	     16.35226976	      3.05878161	      1.09791084	     11.75622081	    -26.34608921	     -0.45982600	     14.80613645	      3.63425707	     -6.25874297	     -3.61828282	     -0.17693720	    -12.20028212	     -6.68852153	     -6.22867427	    -17.79871328	     23.25780518	     89.95437384	      0.00000000	      0.00000000	      9.34643916	     14.88877984	     14.03583933	     47.07787850	     89.95437384	      0.00000000	      0.00000000
      1.50000000	     -3.67189814	     -0.67770156	      8.06099693	     -0.26404827	      0.88112179	      1.46459795	     31.06154105	     -5.60075308	    -18.78543584	    -21.74928330	     -0.37959660	      6.07199076	     -7.70032055	     16.13075041	      2.78427019	      0.86141302	     11.97133630	    -26.50547906	     -0.46260788	     14.75689928	      3.52437186	     -6.27816570	     -3.15206495	     -0.58357642	    -12.28772082	     -6.93622060	     -6.10034838	    -17.81215726	     23.20575474	     89.95437384	      0.00000000	      0.00000000	      9.50884977	     14.99758529	     14.04850057	     47.44923937	     89.95437384	      0.00000000	      0.00000000
      1.51000000	     -3.63150932	     -0.79219647	      8.55275944	     -0.25393503	      0.88045772	      1.46459067	     30.95717140	     -5.88078163	    -20.78950984	    -20.37548812	     -0.35561935	      6.24359476	     -4.05190384	     14.23349310	      2.30770426	      1.31176222	     11.92404624	    -26.95118532	     -0.47038692	     14.43355849	      2.71400665	     -6.75071221	     -3.13060773	     -0.40600701	    -12.78899671	     -7.01597436	     -5.99088965	    -18.04108200	     23.06944309	     89.95437384	      0.00000000	      0.00000000	      9.55548727	     15.02351794	     14.35443525	     48.02339160	     89.95437384	      0.00000000	      0.00000000
